<?xml version="1.0" encoding="utf-8"?>
<!-- Generator: Adobe Illustrator 17.0.2, SVG Export Plug-In . SVG Version: 6.00 Build 0)  -->
<!DOCTYPE svg PUBLIC "-//W3C//DTD SVG 1.1//EN" "http://www.w3.org/Graphics/SVG/1.1/DTD/svg11.dtd">
<svg version="1.1" id="Layer_1" xmlns="http://www.w3.org/2000/svg" xmlns:xlink="http://www.w3.org/1999/xlink" x="0px" y="0px"
	 width="343px" height="63px" viewBox="0 0 343 63" enable-background="new 0 0 343 63" xml:space="preserve">
<rect width="343" height="63"/>
<g>
	<g>
		<polygon fill="#DD2626" points="36.775,35.22 50.501,33.301 54.399,39.036 41.043,45.126 		"/>
		<polygon fill="#9B2323" points="41.043,45.126 36.775,35.22 23.957,28.333 36.458,45.007 		"/>
		<polygon fill="#B72525" points="50.501,33.301 33.478,30.79 24.831,29.084 36.775,35.22 		"/>
	</g>
	<g>
		<polygon fill="#C3C646" points="23.957,23.095 33.478,27.658 33.377,11.217 		"/>
		<polygon fill="#979936" points="23.957,23.095 23.544,25.917 35.943,33.005 33.478,27.658 		"/>
		<polygon fill="#E4EF50" points="33.478,27.658 33.377,11.217 49.274,31.681 35.943,33.005 		"/>
	</g>
	<g>
		<g>
			<g>
				<g>
					<polyline fill="#08A36B" points="33.209,29.66 22.831,24.791 12.543,38.799 32.5,48.951 					"/>
				</g>
			</g>
			<line fill="#211A05" x1="33.478" y1="30.443" x2="33.209" y2="48.609"/>
		</g>
		<polygon fill="#01C688" points="33.209,29.66 32.5,48.951 39.854,45.983 		"/>
	</g>
</g>
<rect x="68" y="16.051" fill="none" width="256" height="30.5"/>
<text transform="matrix(1 0 0 1 68 45.0439)" fill="#01C688" font-family="'Merriweather-Regular'" font-size="36">Color for Code</text>
</svg>
