<?xml version="1.0" encoding="utf-8"?>
<!-- Generator: Adobe Illustrator 17.0.2, SVG Export Plug-In . SVG Version: 6.00 Build 0)  -->
<!DOCTYPE svg PUBLIC "-//W3C//DTD SVG 1.1//EN" "http://www.w3.org/Graphics/SVG/1.1/DTD/svg11.dtd">
<svg version="1.1" id="Layer_1" xmlns="http://www.w3.org/2000/svg" xmlns:xlink="http://www.w3.org/1999/xlink" x="0px" y="0px"
	 width="62.29px" height="56.157px" viewBox="2.048 2.74 62.29 56.157" enable-background="new 2.048 2.74 62.29 56.157"
	 xml:space="preserve">
<g>
	<g>
		<polygon fill="#DD2626" points="38.111,38.462 58.538,35.606 64.338,44.141 44.463,53.204 		"/>
		<polygon fill="#9B2323" points="44.463,53.204 38.111,38.462 19.035,28.214 37.638,53.027 		"/>
		<polygon fill="#B72525" points="58.538,35.606 33.204,31.869 20.334,29.33 38.111,38.462 		"/>
	</g>
	<g>
		<polygon fill="#C3C646" points="19.035,20.417 33.204,27.208 33.053,2.74 		"/>
		<polygon fill="#979936" points="19.035,20.417 18.419,24.617 36.873,35.165 33.204,27.208 		"/>
		<polygon fill="#E4EF50" points="33.204,27.208 33.053,2.74 56.712,33.196 36.873,35.165 		"/>
	</g>
	<g>
		<g>
			<g>
				<g>
					<polyline fill="#08A36B" points="32.803,30.187 17.359,22.941 2.048,43.788 31.749,58.897 					"/>
				</g>
			</g>
			<line fill="none" x1="33.204" y1="31.353" x2="32.803" y2="58.388"/>
		</g>
		<polygon fill="#01C688" points="32.803,30.187 31.749,58.897 42.693,54.48 		"/>
	</g>
</g>
</svg>
