<?xml version="1.0" encoding="utf-8"?>
<!-- Generator: Adobe Illustrator 17.0.2, SVG Export Plug-In . SVG Version: 6.00 Build 0)  -->
<!DOCTYPE svg PUBLIC "-//W3C//DTD SVG 1.1//EN" "http://www.w3.org/Graphics/SVG/1.1/DTD/svg11.dtd">
<svg version="1.1" id="Layer_1" xmlns="http://www.w3.org/2000/svg" xmlns:xlink="http://www.w3.org/1999/xlink" x="0px" y="0px"
	 width="120px" height="120px" viewBox="0 0 120 120" enable-background="new 0 0 120 120" xml:space="preserve">
<path fill="#333333" stroke="#333333" stroke-miterlimit="10" d="M57.949,39.239c0,0-0.149,9.751-0.149,15.985
	c-3.858,0-9.694,0.188-16.74,0.188c0-6.234-0.004-9.852-0.004-16.086c-3.02,0-8.556,0-8.556,0c0,11.577,0,26.716,0,39.184
	c0,0,5.033,0,8.053,0c0-4.453,0-11.577,0-16.92c7.046,0,13.086,0,17.113,0c0,5.343,0,12.468,0,16.92h0.555c0,0-0.227,0,0,0
	c6.671,0,11.689,0.142,18.359,0.056c1.929-0.025,3.911-0.197,5.767-0.671c4.401-1.123,6.716-3.266,7.488-7.739
	c0.827-4.795-0.22-10.842-5.801-12.847c0.042-0.127,0.041-0.159,0.066-0.178c0.093-0.069,0.213-0.103,0.292-0.183
	c3.162-3.21,3.495-5.626,3.423-9.428c-0.085-4.403-2.409-6.532-5.265-7.439c-1.781-0.565-6.887-0.948-12.39-0.894L57.949,39.239z
	 M64.712,46.21c2.013-0.001,7.49-0.165,11.143,0.053c2.995,0.178,4.369,1.943,4.257,4.801c-0.093,2.363-1.899,3.972-4.96,4.097
	c-3.425,0.139-8.427,0.033-10.441,0.032C64.712,52.2,64.712,49.204,64.712,46.21z M81.636,68.64
	c-1.074,2.175-2.645,3.053-4.877,3.131c-3.958,0.139-10.034,0.04-12.047,0.039c0-3.527,0-7.057,0-10.578
	c2.013-0.002,7.827,0.017,11.657,0.057C82.447,61.354,82.515,66.861,81.636,68.64z"/>
<path fill="#12CD6A" d="M107.581,59.831c-1.919-0.997-3.507-1.615-4.685-3.416c-1.496-2.288-2.328-5.099-2.349-8.351
	c-0.026-3.942-0.006-7.67-0.019-11.502s-0.034-7.451-0.158-11.389c-0.096-3.066-0.537-4.51-1.751-5.441
	c-1.557-1.194-2.324-1.357-5.133-1.65c-0.753-0.079-2.254-0.122-3.03-0.122s-2.457,0.061-2.457,0.061c0-5.124,0-5.959,0-6.912
	c0-0.953,0,0.607,0-1.87c2-0.228,2.381-0.152,3.71-0.208s2.594-0.016,5.329,0.367c3.168,0.444,6.138,2.521,8.229,5.427
	c2.091,2.905,3.475,6.638,3.572,10.393c0.116,4.522,0.154,7.48,0.126,10.439c-0.027,2.959-0.742,5.919-0.722,10.444
	c0.016,3.55,4.756,6.878,7.756,8.213v9.963c-3,1.336-7.727,4.091-7.742,7.641c-0.02,4.525,0.356,7.485,0.384,10.444
	c0.027,2.959,0.193,5.917,0.076,10.439c-0.097,3.755-1.339,7.488-3.431,10.393c-2.091,2.905-4.91,4.983-8.079,5.427
	c-2.736,0.383-4.191,0.423-5.52,0.367c-1.329-0.056-1.688,0.02-3.688-0.208c0-2.478,0-0.917,0-1.87s0-1.788,0-6.912
	c0,0,1.681,0.061,2.457,0.061s2.064-0.043,2.817-0.122c2.809-0.293,3.683-0.457,5.24-1.65c1.214-0.931,1.708-2.375,1.805-5.441
	c0.124-3.938,0.171-7.557,0.184-11.389s0.007-7.559,0.032-11.502c0.021-3.252,0.86-6.063,2.356-8.351
	c1.178-1.801,2.769-2.748,4.688-3.744"/>
<path fill="#12CD6A" d="M12.457,59.831c1.919-0.997,3.507-1.615,4.685-3.416c1.496-2.288,2.328-5.099,2.349-8.351
	c0.026-3.942,0.006-7.67,0.019-11.502c0.013-3.832,0.034-7.451,0.158-11.389c0.096-3.066,0.537-4.51,1.751-5.441
	c1.557-1.194,2.324-1.357,5.133-1.65c0.753-0.079,2.235-0.122,3.01-0.122c0.776,0,2.438,0.061,2.438,0.061c0-5.124,0-5.959,0-6.912
	c0-0.953,0,0.607,0-1.87c-2-0.228-2.361-0.152-3.691-0.208c-1.329-0.056-2.584-0.016-5.32,0.367
	c-3.168,0.444-6.133,2.521-8.224,5.427c-2.091,2.905-3.473,6.638-3.569,10.393c-0.116,4.522-0.152,7.48-0.125,10.439
	s0.723,5.919,0.704,10.444C11.759,49.652,7,52.98,4,54.315v9.963c3,1.336,7.746,4.091,7.762,7.641
	c0.02,4.525-0.347,7.485-0.374,10.444c-0.027,2.959-0.188,5.917-0.072,10.439c0.097,3.755,1.342,7.488,3.433,10.393
	s4.912,4.983,8.08,5.427c2.736,0.383,4.172,0.423,5.502,0.367c1.329-0.056,1.669,0.02,3.669-0.208c0-2.478,0-0.917,0-1.87
	s0-1.788,0-6.912c0,0-1.662,0.061-2.438,0.061c-0.776,0-2.054-0.043-2.807-0.122c-2.809-0.293-3.678-0.457-5.235-1.65
	c-1.214-0.931-1.706-2.375-1.802-5.441c-0.124-3.938-0.17-7.557-0.183-11.389s-0.006-7.559-0.032-11.502
	c-0.021-3.252-0.859-6.063-2.356-8.351c-1.178-1.801-2.769-2.748-4.688-3.744"/>
</svg>
