<?xml version="1.0" encoding="utf-8"?>
<!-- Generator: Adobe Illustrator 17.0.2, SVG Export Plug-In . SVG Version: 6.00 Build 0)  -->
<!DOCTYPE svg PUBLIC "-//W3C//DTD SVG 1.1//EN" "http://www.w3.org/Graphics/SVG/1.1/DTD/svg11.dtd">
<svg version="1.1" id="Layer_1" xmlns="http://www.w3.org/2000/svg" xmlns:xlink="http://www.w3.org/1999/xlink" x="0px" y="0px"
	 width="34.882px" height="32px" viewBox="-5.441 -3.95 34.882 32" enable-background="new -5.441 -3.95 34.882 32"
	 xml:space="preserve">
<g id="LinkedIn_1_">
	<g>
		<path d="M2.597,27.898h-6.37c-0.455,0-0.758-0.303-0.758-0.758V6.514c0-0.455,0.303-0.758,0.758-0.758h6.521
			c0.455,0,0.758,0.303,0.758,0.758V27.14C3.355,27.595,3.052,27.898,2.597,27.898z"/>
	</g>
	<g>
		<path d="M2.597,27.898h-6.37c-0.455,0-0.758-0.303-0.758-0.758V6.514c0-0.455,0.303-0.758,0.758-0.758h6.521
			c0.455,0,0.758,0.303,0.758,0.758V27.14C3.355,27.595,3.052,27.898,2.597,27.898z"/>
	</g>
	<g>
		<path d="M2.597,27.898h-6.37c-0.455,0-0.758-0.303-0.758-0.758V6.514c0-0.455,0.303-0.758,0.758-0.758h6.521
			c0.455,0,0.758,0.303,0.758,0.758V27.14C3.355,27.595,3.052,27.898,2.597,27.898z"/>
	</g>
	<g>
		<path d="M28.682,27.898h-7.431c-0.455,0-0.758-0.303-0.758-0.758v-8.796c0-1.82-0.455-3.943-2.882-3.943
			c-1.668,0-2.427,1.062-2.882,2.123c-0.152,0.303-0.152,0.758-0.152,1.213v9.555c0,0.455-0.303,0.758-0.758,0.758H6.692
			c-0.152,0-0.455-0.152-0.607-0.152s-0.152-0.607-0.152-0.758s0-18.957,0-20.626c0-0.152,0-0.455,0.152-0.607
			c0.152,0,0.303-0.152,0.607-0.152h7.28c0.455,0,0.758,0.303,0.758,0.758v0.91c1.213-1.062,3.185-1.972,5.763-1.972
			c5.611,0,8.948,3.943,8.948,10.161V27.14C29.441,27.595,29.137,27.898,28.682,27.898z"/>
	</g>
	<g>
		<path d="M28.682,27.898h-7.431c-0.455,0-0.758-0.303-0.758-0.758v-8.796c0-1.82-0.455-3.943-2.882-3.943
			c-1.668,0-2.427,1.062-2.882,2.123c-0.152,0.303-0.152,0.758-0.152,1.213v9.555c0,0.455-0.303,0.758-0.758,0.758H6.692
			c-0.152,0-0.455-0.152-0.607-0.152s-0.152-0.607-0.152-0.758s0-18.957,0-20.626c0-0.152,0-0.455,0.152-0.607
			c0.152,0,0.303-0.152,0.607-0.152h7.28c0.455,0,0.758,0.303,0.758,0.758v0.91c1.213-1.062,3.185-1.972,5.763-1.972
			c5.611,0,8.948,3.943,8.948,10.161V27.14C29.441,27.595,29.137,27.898,28.682,27.898z"/>
	</g>
	<g>
		<path d="M-0.739,4.695L-0.739,4.695c-2.73,0-4.701-1.82-4.701-4.246c0-2.578,1.972-4.398,4.701-4.398s4.55,1.82,4.701,4.246
			C3.962,2.875,1.991,4.695-0.739,4.695z"/>
	</g>
</g>
</svg>
